{"asset":{"version":"2.0","generator":"Blockbench 4.7.2 glTF exporter"},"scenes":[{"nodes":[14],"name":"blockbench_export"}],"scene":0,"nodes":[{"name":"Head","mesh":0},{"name":"Box","mesh":1},{"rotation":[0,0,-0.7071067811865475,0.7071067811865476],"name":"cylinder","mesh":2},{"rotation":[0,0,-0.7071067811865475,0.7071067811865476],"translation":[0,0,-1.4375],"name":"cylinder","mesh":3},{"rotation":[0,0,0.7071067811865475,0.7071067811865476],"translation":[0,0,-1.4375],"name":"cylinder","mesh":4},{"rotation":[0,0,0.7071067811865475,0.7071067811865476],"name":"cylinder","mesh":5},{"name":"Wheel","children":[2,3,4,5]},{"translation":[-0.5,-0.609375,-0.359375],"name":"cube","mesh":6},{"translation":[-0.5,-0.609375,-0.359375],"name":"cube","mesh":7},{"translation":[-0.5,-0.609375,-0.359375],"name":"cube","mesh":8},{"rotation":[0,-0.19509032201612825,0,0.9807852804032304],"translation":[-1,0,0],"name":"cube","mesh":9},{"rotation":[0,0.19509032201612825,0,0.9807852804032304],"name":"cube","mesh":10},{"translation":[0.5,0.609375,0.359375],"name":"bone","children":[7,8,9,10,11]},{"translation":[0,0.184375,0.75],"name":"All","children":[0,1,6,12]},{"children":[13]}],"bufferViews":[{"buffer":0,"byteOffset":0,"byteLength":2784,"target":34962,"byteStride":12},{"buffer":0,"byteOffset":2784,"byteLength":2784,"target":34962,"byteStride":12},{"buffer":0,"byteOffset":5568,"byteLength":1856,"target":34962,"byteStride":8},{"buffer":0,"byteOffset":7424,"byteLength":696,"target":34963},{"buffer":0,"byteOffset":8120,"byteLength":672,"target":34962,"byteStride":12},{"buffer":0,"byteOffset":8792,"byteLength":672,"target":34962,"byteStride":12},{"buffer":0,"byteOffset":9464,"byteLength":448,"target":34962,"byteStride":8},{"buffer":0,"byteOffset":9912,"byteLength":168,"target":34963},{"buffer":0,"byteOffset":10080,"byteLength":960,"target":34962,"byteStride":12},{"buffer":0,"byteOffset":11040,"byteLength":960,"target":34962,"byteStride":12},{"buffer":0,"byteOffset":12000,"byteLength":640,"target":34962,"byteStride":8},{"buffer":0,"byteOffset":12640,"byteLength":192,"target":34963},{"buffer":0,"byteOffset":12832,"byteLength":960,"target":34962,"byteStride":12},{"buffer":0,"byteOffset":13792,"byteLength":960,"target":34962,"byteStride":12},{"buffer":0,"byteOffset":14752,"byteLength":640,"target":34962,"byteStride":8},{"buffer":0,"byteOffset":15392,"byteLength":192,"target":34963},{"buffer":0,"byteOffset":15584,"byteLength":960,"target":34962,"byteStride":12},{"buffer":0,"byteOffset":16544,"byteLength":960,"target":34962,"byteStride":12},{"buffer":0,"byteOffset":17504,"byteLength":640,"target":34962,"byteStride":8},{"buffer":0,"byteOffset":18144,"byteLength":192,"target":34963},{"buffer":0,"byteOffset":18336,"byteLength":960,"target":34962,"byteStride":12},{"buffer":0,"byteOffset":19296,"byteLength":960,"target":34962,"byteStride":12},{"buffer":0,"byteOffset":20256,"byteLength":640,"target":34962,"byteStride":8},{"buffer":0,"byteOffset":20896,"byteLength":192,"target":34963},{"buffer":0,"byteOffset":21088,"byteLength":288,"target":34962,"byteStride":12},{"buffer":0,"byteOffset":21376,"byteLength":288,"target":34962,"byteStride":12},{"buffer":0,"byteOffset":21664,"byteLength":192,"target":34962,"byteStride":8},{"buffer":0,"byteOffset":21856,"byteLength":72,"target":34963},{"buffer":0,"byteOffset":21928,"byteLength":288,"target":34962,"byteStride":12},{"buffer":0,"byteOffset":22216,"byteLength":288,"target":34962,"byteStride":12},{"buffer":0,"byteOffset":22504,"byteLength":192,"target":34962,"byteStride":8},{"buffer":0,"byteOffset":22696,"byteLength":72,"target":34963},{"buffer":0,"byteOffset":22768,"byteLength":288,"target":34962,"byteStride":12},{"buffer":0,"byteOffset":23056,"byteLength":288,"target":34962,"byteStride":12},{"buffer":0,"byteOffset":23344,"byteLength":192,"target":34962,"byteStride":8},{"buffer":0,"byteOffset":23536,"byteLength":72,"target":34963},{"buffer":0,"byteOffset":23608,"byteLength":288,"target":34962,"byteStride":12},{"buffer":0,"byteOffset":23896,"byteLength":288,"target":34962,"byteStride":12},{"buffer":0,"byteOffset":24184,"byteLength":192,"target":34962,"byteStride":8},{"buffer":0,"byteOffset":24376,"byteLength":72,"target":34963},{"buffer":0,"byteOffset":24448,"byteLength":288,"target":34962,"byteStride":12},{"buffer":0,"byteOffset":24736,"byteLength":288,"target":34962,"byteStride":12},{"buffer":0,"byteOffset":25024,"byteLength":192,"target":34962,"byteStride":8},{"buffer":0,"byteOffset":25216,"byteLength":72,"target":34963}],"buffers":[{"byteLength":25288,"uri":"data:application/octet-stream;base64,"}],"accessors":[{"bufferView":0,"componentType":5126,"count":232,"max":[0.5,1,0.5625],"min":[-0.5,0,-0.5],"type":"VEC3"},{"bufferView":1,"componentType":5126,"count":232,"max":[1,1,1],"min":[-1,-1,-1],"type":"VEC3"},{"bufferView":2,"componentType":5126,"count":232,"max":[0.75,0.734375],"min":[0,0],"type":"VEC2"},{"bufferView":3,"componentType":5123,"count":348,"max":[231],"min":[0],"type":"SCALAR"},{"bufferView":4,"componentType":5126,"count":56,"max":[0.5,0.484375,-0.5],"min":[-0.5,0.203125,-1.75],"type":"VEC3"},{"bufferView":5,"componentType":5126,"count":56,"max":[1,1,1],"min":[-1,-1,-1],"type":"VEC3"},{"bufferView":6,"componentType":5126,"count":56,"max":[0.859375,0.671875],"min":[0,0],"type":"VEC2"},{"bufferView":7,"componentType":5123,"count":84,"max":[55],"min":[0],"type":"SCALAR"},{"bufferView":8,"componentType":5126,"count":80,"max":[0.18281249701976776,0.546875,0.15156249701976776],"min":[-0.18281249701976776,0.34375,-0.21406249701976776],"type":"VEC3"},{"bufferView":9,"componentType":5126,"count":80,"max":[1,1,1],"min":[-1,-1,-1],"type":"VEC3"},{"bufferView":10,"componentType":5126,"count":80,"max":[0.75,0.9375],"min":[0.004687500186264515,0],"type":"VEC2"},{"bufferView":11,"componentType":5123,"count":96,"max":[79],"min":[0],"type":"SCALAR"},{"bufferView":12,"componentType":5126,"count":80,"max":[0.18281249701976776,0.546875,0.15156249701976776],"min":[-0.18281249701976776,0.34375,-0.21406249701976776],"type":"VEC3"},{"bufferView":13,"componentType":5126,"count":80,"max":[1,1,1],"min":[-1,-1,-1],"type":"VEC3"},{"bufferView":14,"componentType":5126,"count":80,"max":[0.75,0.9375],"min":[0.004687500186264515,0],"type":"VEC2"},{"bufferView":15,"componentType":5123,"count":96,"max":[79],"min":[0],"type":"SCALAR"},{"bufferView":16,"componentType":5126,"count":80,"max":[0.18281249701976776,0.546875,0.15156249701976776],"min":[-0.18281249701976776,0.34375,-0.21406249701976776],"type":"VEC3"},{"bufferView":17,"componentType":5126,"count":80,"max":[1,1,1],"min":[-1,-1,-1],"type":"VEC3"},{"bufferView":18,"componentType":5126,"count":80,"max":[0.75,0.9375],"min":[0.004687500186264515,0],"type":"VEC2"},{"bufferView":19,"componentType":5123,"count":96,"max":[79],"min":[0],"type":"SCALAR"},{"bufferView":20,"componentType":5126,"count":80,"max":[0.18281249701976776,0.546875,0.15156249701976776],"min":[-0.18281249701976776,0.34375,-0.21406249701976776],"type":"VEC3"},{"bufferView":21,"componentType":5126,"count":80,"max":[1,1,1],"min":[-1,-1,-1],"type":"VEC3"},{"bufferView":22,"componentType":5126,"count":80,"max":[0.75,0.9375],"min":[0.004687500186264515,0],"type":"VEC2"},{"bufferView":23,"componentType":5123,"count":96,"max":[79],"min":[0],"type":"SCALAR"},{"bufferView":24,"componentType":5126,"count":24,"max":[0.25,0.21875,-0.5],"min":[-0.25,0.125,-1.6875],"type":"VEC3"},{"bufferView":25,"componentType":5126,"count":24,"max":[1,1,1],"min":[-1,-1,-1],"type":"VEC3"},{"bufferView":26,"componentType":5126,"count":24,"max":[0.546875,0.71875],"min":[0,0.03125],"type":"VEC2"},{"bufferView":27,"componentType":5123,"count":36,"max":[23],"min":[0],"type":"SCALAR"},{"bufferView":28,"componentType":5126,"count":24,"max":[0.25,0.125,-1.296875],"min":[-0.25,0.0625,-1.640625],"type":"VEC3"},{"bufferView":29,"componentType":5126,"count":24,"max":[1,1,1],"min":[-1,-1,-1],"type":"VEC3"},{"bufferView":30,"componentType":5126,"count":24,"max":[0.546875,0.71875],"min":[0,0.03125],"type":"VEC2"},{"bufferView":31,"componentType":5123,"count":36,"max":[23],"min":[0],"type":"SCALAR"},{"bufferView":32,"componentType":5126,"count":24,"max":[0.34375,0.0625,-1.390625],"min":[-0.34375,-0.046875,-1.546875],"type":"VEC3"},{"bufferView":33,"componentType":5126,"count":24,"max":[1,1,1],"min":[-1,-1,-1],"type":"VEC3"},{"bufferView":34,"componentType":5126,"count":24,"max":[0.546875,0.71875],"min":[0,0.03125],"type":"VEC2"},{"bufferView":35,"componentType":5123,"count":36,"max":[23],"min":[0],"type":"SCALAR"},{"bufferView":36,"componentType":5126,"count":24,"max":[0.0078125,0.046875,0.015625],"min":[-0.1171875,-0.046875,-0.015625],"type":"VEC3"},{"bufferView":37,"componentType":5126,"count":24,"max":[1,1,1],"min":[-1,-1,-1],"type":"VEC3"},{"bufferView":38,"componentType":5126,"count":24,"max":[0.34375,0.40625],"min":[0,0.1875],"type":"VEC2"},{"bufferView":39,"componentType":5123,"count":36,"max":[23],"min":[0],"type":"SCALAR"},{"bufferView":40,"componentType":5126,"count":24,"max":[0.1171875,0.046875,0.015625],"min":[-0.0078125,-0.046875,-0.015625],"type":"VEC3"},{"bufferView":41,"componentType":5126,"count":24,"max":[1,1,1],"min":[-1,-1,-1],"type":"VEC3"},{"bufferView":42,"componentType":5126,"count":24,"max":[0.34375,0.40625],"min":[0,0.1875],"type":"VEC2"},{"bufferView":43,"componentType":5123,"count":36,"max":[23],"min":[0],"type":"SCALAR"}],"materials":[{"pbrMetallicRoughness":{"metallicFactor":0,"roughnessFactor":1,"baseColorTexture":{"index":0}},"alphaMode":"MASK","alphaCutoff":0.05,"doubleSided":true},{"pbrMetallicRoughness":{"metallicFactor":0,"roughnessFactor":1,"baseColorTexture":{"index":1}},"alphaMode":"MASK","alphaCutoff":0.05,"doubleSided":true},{"pbrMetallicRoughness":{"metallicFactor":0,"roughnessFactor":1,"baseColorTexture":{"index":2}},"alphaMode":"MASK","alphaCutoff":0.05,"doubleSided":true}],"textures":[{"sampler":0,"source":0,"name":"texture_Head.png"},{"sampler":1,"source":1,"name":"texture_Box.png"},{"sampler":2,"source":2,"name":"texture_Roda.png"}],"samplers":[{"magFilter":9728,"minFilter":9728,"wrapS":33071,"wrapT":33071},{"magFilter":9728,"minFilter":9728,"wrapS":33071,"wrapT":33071},{"magFilter":9728,"minFilter":9728,"wrapS":33071,"wrapT":33071}],"images":[{"mimeType":"image/png","uri":"data:image/png;base64,"},{"mimeType":"image/png","uri":"data:image/png;base64,"},{"mimeType":"image/png","uri":"data:image/png;base64,"}],"meshes":[{"primitives":[{"mode":4,"attributes":{"POSITION":0,"NORMAL":1,"TEXCOORD_0":2},"indices":3,"material":0}]},{"primitives":[{"mode":4,"attributes":{"POSITION":4,"NORMAL":5,"TEXCOORD_0":6},"indices":7,"material":1}]},{"primitives":[{"mode":4,"attributes":{"POSITION":8,"NORMAL":9,"TEXCOORD_0":10},"indices":11,"material":2}]},{"primitives":[{"mode":4,"attributes":{"POSITION":12,"NORMAL":13,"TEXCOORD_0":14},"indices":15,"material":2}]},{"primitives":[{"mode":4,"attributes":{"POSITION":16,"NORMAL":17,"TEXCOORD_0":18},"indices":19,"material":2}]},{"primitives":[{"mode":4,"attributes":{"POSITION":20,"NORMAL":21,"TEXCOORD_0":22},"indices":23,"material":2}]},{"primitives":[{"mode":4,"attributes":{"POSITION":24,"NORMAL":25,"TEXCOORD_0":26},"indices":27,"material":1}]},{"primitives":[{"mode":4,"attributes":{"POSITION":28,"NORMAL":29,"TEXCOORD_0":30},"indices":31,"material":1}]},{"primitives":[{"mode":4,"attributes":{"POSITION":32,"NORMAL":33,"TEXCOORD_0":34},"indices":35,"material":1}]},{"primitives":[{"mode":4,"attributes":{"POSITION":36,"NORMAL":37,"TEXCOORD_0":38},"indices":39,"material":0}]},{"primitives":[{"mode":4,"attributes":{"POSITION":40,"NORMAL":41,"TEXCOORD_0":42},"indices":43,"material":0}]}]}